# xmcd
#
# Track frame offsets: 
#        150
#        14158
#        28329
#        47111
#        66354
#        84574
#        97464
#        117987
#        134387
#        150917
#        168375
#        182818
#        194723
#        216091
#        228380
#        245336
#
# Disc length: 3445 seconds
#
# Revision: 0
# Processed by: cddbd v1.5.2PL0 Copyright (c) Steve Scherf et al.
# Submitted via: ExactAudioCopy v1.0b1
#
DISCID=ee0d7310
DTITLE=Various Artist - CD-X Volume 526
DYEAR=2011
DGENRE=Country
TTITLE0=George Strait - Here For A Good Time
TTITLE1=Brett Eldredge - It Ain't Gotta Be Love
TTITLE2=Scotty McCreery - I Love You This Big
TTITLE3=Lauren Alaina - Like My Mother Does
TTITLE4=Sara Evans - My Heart Can't Tell You No (Edit)
TTITLE5=Kellie Pickler - Tough
TTITLE6=Kacey Jones - Apples Dipped In Candy
TTITLE7=Tracy Lawrence - The Singer
TTITLE8=Royal Wade Kimes - 500 Miles Away From Home
TTITLE9=Keith Bryant - Can't Tell Somebody (Who To Love)
TTITLE10=Roy Head - Can't Turn 'Em Down At All (with Jeff Chance)
TTITLE11=Tracy Delucia - Good Morning To You
TTITLE12=Teea Goans - Letter From God
TTITLE13=Erica Nicole - Shave
TTITLE14=Lewis Copeland - She's Got It Goin' On
TTITLE15=Joel Warren - Straight Up Country (with Jason Allen)
EXTD=
EXTT0=
EXTT1=
EXTT2=
EXTT3=
EXTT4=
EXTT5=
EXTT6=
EXTT7=
EXTT8=
EXTT9=
EXTT10=
EXTT11=
EXTT12=
EXTT13=
EXTT14=
EXTT15=
PLAYORDER=
